<svg width="40" height="30" viewBox="0 0 40 30" fill="none" xmlns="http://www.w3.org/2000/svg">
<path d="M36.9491 0H2.23021C0.998498 0 0 0.996267 0 2.22523C0 3.45418 0.998498 4.45045 2.23021 4.45045H36.9491C38.1808 4.45045 39.1793 3.45418 39.1793 2.22523C39.1793 0.996267 38.1808 0 36.9491 0Z" fill="white"/>
<path d="M36.9491 12.8101H2.23021C0.998498 12.8101 0 13.8063 0 15.0353C0 16.2642 0.998498 17.2605 2.23021 17.2605H36.9491C38.1808 17.2605 39.1793 16.2642 39.1793 15.0353C39.1793 13.8063 38.1808 12.8101 36.9491 12.8101Z" fill="white"/>
<path d="M36.9491 24.6178H2.23021C0.998498 24.6178 0 25.6141 0 26.843C0 28.072 0.998498 29.0682 2.23021 29.0682H36.9491C38.1808 29.0682 39.1793 28.072 39.1793 26.843C39.1793 25.6141 38.1808 24.6178 36.9491 24.6178Z" fill="white"/>
</svg>
