<svg id="bateria" xmlns="http://www.w3.org/2000/svg" viewBox="0 0 196.03 199.48"><defs><style>.cls-1{fill:none;stroke:#255eef;stroke-miterlimit:10;stroke-width:3px;}.cls-2{font-size:45.33px;fill:#255eef;font-family:AgencyFB-Reg, Agency FB;}</style></defs><path class="cls-1" d="M90.46,89.55H59.91a4.26,4.26,0,0,1-3.46-6.73l47.7-66.62H24.65A21.16,21.16,0,0,0,3.48,37.36v77.79a21.17,21.17,0,0,0,21.17,21.17H75.16Z" transform="translate(-1.98 -3.51)"/><path class="cls-1" d="M188.63,40.37h-8v-3A21.16,21.16,0,0,0,159.48,16.2H117.14l-9.22,41.24h32.17a4.25,4.25,0,0,1,3.37,6.84L88,136.32h71.44a21.17,21.17,0,0,0,21.17-21.17v-3h8a7.88,7.88,0,0,0,7.89-7.88v-56A7.89,7.89,0,0,0,188.63,40.37Z" transform="translate(-1.98 -3.51)"/><path class="cls-1" d="M110.88,6.81l-54.43,76a4.26,4.26,0,0,0,3.46,6.73H90.46L73.33,141.91a4.25,4.25,0,0,0,7.41,3.91l62.72-81.54a4.25,4.25,0,0,0-3.37-6.84H107.92l10.56-47.23A4.25,4.25,0,0,0,110.88,6.81Z" transform="translate(-1.98 -3.51)"/><text class="cls-2" transform="translate(40.21 190.4)">BATERIA</text></svg>