<svg id="Camada_4" data-name="Camada 4" xmlns="http://www.w3.org/2000/svg" viewBox="0 0 197.83 198"><defs><style>.cls-1{fill:none;stroke:#255eef;stroke-miterlimit:10;stroke-width:3px;}.cls-2{font-size:63.99px;fill:#255eef;font-family:AgencyFB-Reg, Agency FB;}</style></defs><rect class="cls-1" x="38.04" y="38.13" width="121.31" height="121.31" rx="8.06"/><rect class="cls-1" x="24.17" y="24.25" width="149.05" height="149.05" rx="19.57"/><line class="cls-1" x1="46.67" y1="4.51" x2="46.67" y2="24.24"/><circle class="cls-1" cx="46.67" cy="3.11" r="1.33"/><line class="cls-1" x1="72.68" y1="4.64" x2="72.68" y2="24.37"/><circle class="cls-1" cx="72.68" cy="3.24" r="1.33"/><line class="cls-1" x1="98.7" y1="4.23" x2="98.7" y2="23.96"/><circle class="cls-1" cx="98.7" cy="2.83" r="1.33"/><line class="cls-1" x1="124.71" y1="4.67" x2="124.71" y2="24.4"/><circle class="cls-1" cx="124.71" cy="3.27" r="1.33"/><line class="cls-1" x1="150.72" y1="4.9" x2="150.72" y2="24.63"/><circle class="cls-1" cx="150.72" cy="3.5" r="1.33"/><line class="cls-1" x1="193.32" y1="46.75" x2="173.59" y2="46.75"/><circle class="cls-1" cx="194.72" cy="46.75" r="1.33"/><line class="cls-1" x1="193.19" y1="72.77" x2="173.46" y2="72.77"/><circle class="cls-1" cx="194.59" cy="72.77" r="1.33"/><line class="cls-1" x1="193.59" y1="98.78" x2="173.87" y2="98.78"/><circle class="cls-1" cx="195" cy="98.78" r="1.33"/><line class="cls-1" x1="193.16" y1="124.79" x2="173.43" y2="124.79"/><circle class="cls-1" cx="194.56" cy="124.79" r="1.33"/><line class="cls-1" x1="192.93" y1="150.81" x2="173.2" y2="150.81"/><circle class="cls-1" cx="194.33" cy="150.81" r="1.33"/><line class="cls-1" x1="4.51" y1="46.75" x2="24.24" y2="46.75"/><circle class="cls-1" cx="3.11" cy="46.75" r="1.33"/><line class="cls-1" x1="4.64" y1="72.77" x2="24.37" y2="72.77"/><circle class="cls-1" cx="3.24" cy="72.77" r="1.33"/><line class="cls-1" x1="4.23" y1="98.78" x2="23.96" y2="98.78"/><circle class="cls-1" cx="2.83" cy="98.78" r="1.33"/><line class="cls-1" x1="4.67" y1="124.79" x2="24.4" y2="124.79"/><circle class="cls-1" cx="3.27" cy="124.79" r="1.33"/><line class="cls-1" x1="4.9" y1="150.81" x2="24.63" y2="150.81"/><circle class="cls-1" cx="3.5" cy="150.81" r="1.33"/><line class="cls-1" x1="46.67" y1="193.49" x2="46.67" y2="173.76"/><circle class="cls-1" cx="46.67" cy="194.89" r="1.33"/><line class="cls-1" x1="72.68" y1="193.36" x2="72.68" y2="173.63"/><circle class="cls-1" cx="72.68" cy="194.76" r="1.33"/><line class="cls-1" x1="98.7" y1="193.77" x2="98.7" y2="174.04"/><circle class="cls-1" cx="98.7" cy="195.17" r="1.33"/><line class="cls-1" x1="124.71" y1="193.33" x2="124.71" y2="173.6"/><circle class="cls-1" cx="124.71" cy="194.73" r="1.33"/><line class="cls-1" x1="150.72" y1="193.1" x2="150.72" y2="173.37"/><circle class="cls-1" cx="150.72" cy="194.5" r="1.33"/><text class="cls-2" transform="translate(57.94 120.59)">CPU</text></svg>