<svg id="gpu" xmlns="http://www.w3.org/2000/svg" viewBox="0 0 198.09 144.72"><defs><style>.cls-1{fill:none;stroke:#255eef;stroke-miterlimit:10;stroke-width:3px;}.cls-2{font-size:63.21px;fill:#255eef;font-family:AgencyFB-Reg, Agency FB;}</style></defs><path class="cls-1" d="M31.19,26H188.27a8.32,8.32,0,0,1,8.32,8.32v87.13a8.32,8.32,0,0,1-8.32,8.32H31.19a0,0,0,0,1,0,0V26A0,0,0,0,1,31.19,26Z"/><path class="cls-1" d="M32,35.32A6.32,6.32,0,0,0,25.63,29H8.78a6.32,6.32,0,0,0-6.33,6.32h0a6.32,6.32,0,0,0,6.33,6.32H15.9a3.41,3.41,0,0,1,3.41,3.41V164.16a6.48,6.48,0,0,0,5.53,6.51A6.32,6.32,0,0,0,32,164.4V35.87c0-.09,0-.18,0-.27s0-.19,0-.28Z" transform="translate(-0.95 -27.5)"/><path class="cls-1" d="M7.46,33.65h10.9a0,0,0,0,1,0,0V65.26a0,0,0,0,1,0,0H7.46A5.43,5.43,0,0,1,2,59.83V39.08A5.43,5.43,0,0,1,7.46,33.65Z"/><path class="cls-1" d="M7.46,72.11h10.9a0,0,0,0,1,0,0v48.46a0,0,0,0,1,0,0H7.46A5.43,5.43,0,0,1,2,115.14V77.54A5.43,5.43,0,0,1,7.46,72.11Z"/><path class="cls-1" d="M67.75,136.75H75.8a0,0,0,0,1,0,0v54.78a0,0,0,0,1,0,0H67.75a5.12,5.12,0,0,1-5.12-5.12V141.86A5.12,5.12,0,0,1,67.75,136.75Z" transform="translate(-95.87 205.85) rotate(-90)"/><path class="cls-1" d="M145.37,120.42h8.05a0,0,0,0,1,0,0v87.44a0,0,0,0,1,0,0h-8.05a5.12,5.12,0,0,1-5.12-5.12V125.53A5.12,5.12,0,0,1,145.37,120.42Z" transform="translate(-18.25 283.47) rotate(-90)"/><line class="cls-1" x1="60.09" y1="130.05" x2="60.09" y2="143.22"/><line class="cls-1" x1="76.44" y1="130.58" x2="76.44" y2="143.22"/><line class="cls-1" x1="121.4" y1="130.07" x2="121.4" y2="143.24"/><line class="cls-1" x1="137.72" y1="130.07" x2="137.72" y2="143.24"/><line class="cls-1" x1="154.04" y1="130.27" x2="154.04" y2="143.03"/><line class="cls-1" x1="170.36" y1="129.8" x2="170.36" y2="143.5"/><text class="cls-2" transform="translate(73.46 99.46)">GPU</text></svg>