<svg id="ram" xmlns="http://www.w3.org/2000/svg" viewBox="0 0 198 130.99"><defs><style>.cls-1,.cls-2{fill:none;stroke:#255eef;stroke-miterlimit:10;stroke-width:3px;}.cls-2{stroke-linecap:round;}.cls-3{font-size:58.95px;fill:#255eef;font-family:AgencyFB-Reg, Agency FB;}</style></defs><path class="cls-1" d="M195.65,90.92a10.83,10.83,0,0,1,0-21.63,9.44,9.44,0,0,1,1.85.18V47.41A11.14,11.14,0,0,0,186.64,36H13.36A11.14,11.14,0,0,0,2.5,47.41v22a11.4,11.4,0,0,1,1.32-.09,10.83,10.83,0,0,1,0,21.63,9.53,9.53,0,0,1-1.32-.1v46.69h195V90.73A9.44,9.44,0,0,1,195.65,90.92Z" transform="translate(-1 -34.5)"/><rect class="cls-1" x="56.12" y="13.7" width="85.61" height="77.1" rx="5.85"/><rect class="cls-1" x="24.69" y="13.7" width="18.75" height="77.1" rx="5.85"/><rect class="cls-1" x="154.56" y="13.7" width="18.75" height="77.1" rx="5.85"/><line class="cls-2" x1="34" y1="109.92" x2="34" y2="128.78"/><line class="cls-2" x1="47.03" y1="109.92" x2="47.03" y2="128.78"/><line class="cls-2" x1="60.05" y1="109.92" x2="60.05" y2="128.78"/><line class="cls-2" x1="99.14" y1="109.92" x2="99.14" y2="128.78"/><line class="cls-2" x1="112.16" y1="109.92" x2="112.16" y2="128.78"/><line class="cls-2" x1="125.19" y1="109.92" x2="125.19" y2="128.78"/><line class="cls-2" x1="138.22" y1="109.92" x2="138.22" y2="128.78"/><line class="cls-2" x1="151.24" y1="109.92" x2="151.24" y2="128.78"/><line class="cls-2" x1="164.27" y1="109.92" x2="164.27" y2="128.78"/><path class="cls-1" d="M19.15,137.37v22.12A4.4,4.4,0,0,0,23.44,164H74.11V151a6.61,6.61,0,1,1,13.21,0v13h89.24a4.4,4.4,0,0,0,4.29-4.51V137.37Z" transform="translate(-1 -34.5)"/><text class="cls-3" transform="translate(64.17 76.38) scale(0.89 1)">RAM</text></svg>