<svg id="ssd" xmlns="http://www.w3.org/2000/svg" viewBox="0 0 161.89 197.64"><defs><style>.cls-1{fill:none;stroke:#255eef;stroke-miterlimit:10;stroke-width:3px;}.cls-2,.cls-3{fill:#255eef;}.cls-3{font-size:51.41px;font-family:AgencyFB-Reg, Agency FB;}</style></defs><rect class="cls-1" x="1.5" y="1.5" width="158.89" height="194.61" rx="21.61"/><circle class="cls-2" cx="18.52" cy="156.63" r="4"/><circle class="cls-2" cx="143.37" cy="156.63" r="4"/><circle class="cls-2" cx="18.52" cy="40.8" r="4"/><circle class="cls-2" cx="143.37" cy="40.8" r="4"/><path class="cls-1" d="M37.83,165.35h86.23a13.85,13.85,0,0,1,13.85,13.85v16.94a0,0,0,0,1,0,0H24a0,0,0,0,1,0,0V179.2A13.85,13.85,0,0,1,37.83,165.35Z"/><line class="cls-1" x1="45.59" y1="165.4" x2="45.59" y2="196.5"/><line class="cls-1" x1="63.29" y1="165.4" x2="63.29" y2="196.5"/><line class="cls-1" x1="80.98" y1="165.4" x2="80.98" y2="196.5"/><line class="cls-1" x1="98.67" y1="165.4" x2="98.67" y2="196.5"/><line class="cls-1" x1="116.37" y1="165.4" x2="116.37" y2="196.5"/><rect class="cls-1" x="23.36" y="63.7" width="115.17" height="70.21" rx="14.95"/><text class="cls-3" transform="translate(48.71 116.33) scale(0.99 1)">SSD</text></svg>